HIERARCHY
ROOT Hips
{
  OFFSET -17.8222 7.7 127.125
  CHANNELS 6 Xposition Yposition Zposition Zrotation Xrotation Yrotation
  JOINT Spine
  {
    OFFSET 0.0 0.0 0.0
    CHANNELS 3 Zrotation Xrotation Yrotation
    JOINT Spine1
    {
      OFFSET 19.34 0.0 0.0
      CHANNELS 3 Zrotation Xrotation Yrotation
      JOINT Neck
      {
        OFFSET 19.34 0.0 0.0
        CHANNELS 3 Zrotation Xrotation Yrotation
        JOINT Head
        {
          OFFSET 0.0 0.0 0.0
          CHANNELS 3 Zrotation Xrotation Yrotation
          End Site
          {
            OFFSET 17 0 0
          }
        }
      }
      JOINT LeftShoulder
      {
        OFFSET 19.34 0.0 14.2
        CHANNELS 3 Zrotation Xrotation Yrotation
        JOINT LeftArm
        {
          OFFSET 0.0 0.0 0.0
          CHANNELS 3 Zrotation Xrotation Yrotation
          JOINT LeftForeArm
          {
            OFFSET 21.3 0.0 0.0
            CHANNELS 3 Zrotation Xrotation Yrotation
            JOINT LeftHand
            {
              OFFSET 21.3 0.0 0.0
              CHANNELS 3 Zrotation Xrotation Yrotation
              End Site
              {
                OFFSET 7.2 0 0
              }
            }
          }
        }
      }
      JOINT RightShoulder
      {
        OFFSET 19.34 0.0 -14.2
        CHANNELS 3 Zrotation Xrotation Yrotation
        JOINT RightArm
        {
          OFFSET 0.0 0.0 0.0
          CHANNELS 3 Zrotation Xrotation Yrotation
          JOINT RightForeArm
          {
            OFFSET 21.3 0.0 0.0
            CHANNELS 3 Zrotation Xrotation Yrotation
            JOINT RightHand
            {
              OFFSET 21.3 0.0 0.0
              CHANNELS 3 Zrotation Xrotation Yrotation
              End Site
              {
                OFFSET 7.2 0 0
              }
            }
          }
        }
      }
    }
  }
  JOINT LeftUpLeg
  {
    OFFSET 0.0 0.0 14.2
    CHANNELS 3 Zrotation Xrotation Yrotation
    JOINT LeftLeg
    {
      OFFSET 21.3 0.0 0.0
      CHANNELS 3 Zrotation Xrotation Yrotation
      JOINT LeftFoot
      {
        OFFSET 21.3 0.0 0.0
        CHANNELS 3 Zrotation Xrotation Yrotation
        End Site
        {
          OFFSET 0 -10.8 0
        }
      }
    }
  }
  JOINT RightUpLeg
  {
    OFFSET 0.0 0.0 -14.2
    CHANNELS 3 Zrotation Xrotation Yrotation
    JOINT RightLeg
    {
      OFFSET 21.3 0.0 0.0
      CHANNELS 3 Zrotation Xrotation Yrotation
      JOINT RightFoot
      {
        OFFSET 21.3 0.0 0.0
        CHANNELS 3 Zrotation Xrotation Yrotation
        End Site
        {
          OFFSET 0 -10.8 0
        }
      }
    }
  }
  JOINT Tail
  {
    OFFSET 0.0 0.0 0.0
    CHANNELS 3 Zrotation Xrotation Yrotation
    JOINT Tail1
    {
      OFFSET 0.0 0.0 0.0
      CHANNELS 3 Zrotation Xrotation Yrotation
      End Site
      {
        OFFSET 12 0 0
      }
    }
  }
}
MOTION
Frames:	12
Frame Time:	0.0166667
-348.873 49.3034 -327.769 -18.6717 11.4005 132.401 170.29 2.25898 -4.61617 3.73453 0.408071 12.5815 -15.2126 2.83858 -9.00592 -116.696 79.4374 124.494 -111.685 -40.4727 -134.381 136.189 -6.64844 -123.059 -66.6754 12.8636 8.27733 -29.2392 4.54064 -16.1281 83.8622 -15.0894 32.8226 44.9233 -44.9626 -22.2212 -59.0007 -24.3345 -0.639313 -26.1095 -6.32947 22.1481 -119.859 -12.7308 -14.6648 89.6749 -10.3356 4.83698 27.2878 -1.02417 -2.43045 -102.111 0.191247 -6.15282 78.7947 -6.58316 -4.17711 1.79958 -2.05945 -1.81013 -13.1423 -15.2978 32.3136 0.919652 11.5196 -2.28747 
-345.011 49.6787 -323.527 -17.9657 8.74537 133.194 171.132 2.05188 -5.55777 7.49869 0.371701 14.9039 -17.3557 4.98475 -8.08569 -123.842 80.2291 127.522 -111.065 -38.8781 -135.614 133.653 -13.7995 -123.993 -66.7906 17.6611 8.54589 -36.9513 10.0813 -26.0496 83.9037 -15.0858 33.1682 40.4836 -46.9477 -26.1808 -50.9964 -20.445 0.840559 -20.7825 -3.14635 15.1622 -124.886 -12.7108 -15.815 100.771 -9.16812 2.85674 20.3796 -1.13793 -2.49794 -107.766 1.86793 -6.191 88.5514 -7.50112 -4.58717 -0.0002807 -1.95213 -1.51918 18.3386 -39.5338 48.5701 4.03125 45.881 -3.4223 
-341.192 50.0495 -319.472 -16.6949 5.17739 134.114 173.413 1.77032 -5.92201 9.38971 0.33348 16.0063 -19.0943 6.50181 -5.95548 -129.594 79.9457 131.524 -110.375 -36.7506 -137.765 132.431 -19.5253 -126.429 -63.6608 19.765 7.80313 -38.9999 11.5495 -28.4104 82.9986 -16.5794 35.3052 32.1876 -46.5722 -35.9591 -39.1777 -17.3147 1.27474 -16.6015 -0.0619731 5.77906 -129.922 -11.9762 -17.6909 110.722 -6.08226 0.949969 12.5062 -1.61605 -3.2181 -112.329 3.9829 -6.25512 96.1613 -7.86427 -4.86906 -1.63424 -2.03714 -1.51803 101.132 -48.0758 107.669 155.764 77.507 -153.669 
-337.208 50.3959 -315.547 -13.9866 0.568839 134.566 178.167 1.37842 -5.93009 9.59992 0.260433 15.5948 -20.9684 7.75684 -2.55917 -144.408 82.5675 146.946 -109.112 -34.2004 -139.434 133.974 -26.3425 -128.677 -58.0952 22.8651 6.21502 -39.0267 11.9295 -29.903 81.3388 -19.0453 36.7498 30.367 -43.8775 -42.8637 -31.4118 -13.4007 2.7796 -8.23901 2.2244 -5.81727 -138.647 -3.96802 -17.8996 118.121 6.72502 -0.584263 25.5371 -2.57296 -4.7242 -115.452 5.07897 -5.94199 102.619 -6.50267 -4.76915 -1.85288 -2.30024 -2.11264 167.602 -6.91465 135.405 172.768 11.264 -172.044 
-333.605 50.6801 -311.519 -10.3523 -3.58272 135.654 -176.901 0.857706 -5.21167 9.27409 -0.00908974 14.2692 -22.5616 7.01906 0.92245 -149.094 83.0789 153.128 -107.989 -31.9377 -141.111 135.979 -31.92 -129.187 -50.7956 19.9037 3.48485 -34.6579 10.2261 -28.5819 79.7609 -21.626 38.6497 28.9801 -46.4037 -47.1619 -36.9321 -11.3722 3.53872 5.75506 2.36443 -21.3544 -139.184 -3.19932 -18.0157 114.942 10.3953 -0.25017 19.5141 -2.72757 -5.00574 -119.563 6.72935 -4.72281 108.049 -4.42995 -4.58913 1.37262 -2.44608 -2.25005 -144.585 26.7993 123.094 167.956 -43.8068 -177.044 
-330.146 50.8625 -307.192 -6.15338 -7.05289 137.279 -172.073 0.501539 -3.9217 8.2757 -0.324024 12.7309 -23.5844 6.05287 3.39394 -150.987 83.4886 158.668 -106.861 -29.9226 -142.398 136.52 -33.3716 -127.812 -40.3632 14.7242 0.220054 -29.9824 6.95073 -22.6074 78.4937 -24.0494 40.9699 27.4618 -51.0478 -44.8907 -49.8401 -22.7351 -2.70929 1.72999 7.84872 -40.6675 -139.543 -3.28879 -17.1181 107.374 11.1232 1.03037 21.0068 -2.629 -4.95112 -126.75 2.9342 -1.78363 112.212 -14.0018 -4.77655 13.864 -1.10382 -1.17239 -99.2511 36.8492 99.879 125.526 -78.0063 142.945 
-326.728 50.9783 -302.953 -1.88819 -10.4151 138.758 -167.125 0.467849 -2.55438 6.52774 -0.429555 10.8708 -24.076 5.03951 5.13438 -150.298 83.6853 162.72 -106.265 -28.9978 -142.781 137.877 -31.0629 -123.883 -26.6683 8.81258 -3.07398 -24.8759 3.83069 -14.9519 76.9974 -26.9454 43.1902 31.6391 -48.8473 -41.8907 -64.6746 -31.3919 -8.39697 3.75109 12.858 -66.827 -137.302 -2.00364 -15.8354 96.3037 14.5094 2.79602 25.6204 -2.79232 -5.40215 -130.688 -1.07459 2.07698 111.573 -22.8148 -5.26313 23.4724 -0.407995 -0.537578 -68.0121 34.3163 84.6995 32.0687 -69.8329 52.5604 
-323.189 50.8452 -298.886 1.57489 -13.1905 140.259 -162.685 0.682093 -0.919267 3.46275 -0.539415 9.16498 -23.0663 3.6678 6.55786 -149.908 84.4214 166.881 -105.983 -28.6243 -142.8 138.361 -28.2286 -121.83 -15.0639 4.75036 -4.87158 -17.6862 0.29752 -3.85929 75.4283 -30.0595 45.2107 42.3232 -48.7441 -40.0712 -79.0248 -20.0469 -8.18335 12.5492 5.10649 -65.9206 -134.493 -1.0439 -13.567 83.2622 15.8787 4.45128 33.7203 -3.2874 -6.26697 -131.213 0.362223 1.69183 109.113 -15.965 -4.87836 24.1674 -0.201755 -0.665774 -46.0884 28.9364 75.3562 19.048 -52.7138 42.2774 
-319.686 50.5932 -294.696 4.92102 -15.3299 141.661 -158.725 1.30101 0.788621 0.543339 -0.245349 7.25335 -22.3777 2.35472 7.04315 -142.832 84.8914 163.487 -106.639 -29.1172 -143.727 139.854 -32.6424 -120.396 -22.8091 -16.7527 -4.33056 9.28853 2.90176 0.172029 74.3327 -32.5629 47.0899 50.2015 -48.2849 -41.8759 -88.5411 3.50173 -8.08729 19.6295 -1.52075 -34.9349 -130.229 -0.516243 -11.7797 69.2307 20.1082 6.31527 43.9428 -4.24907 -7.37994 -131.753 -0.801321 2.66221 103.008 -16.7321 -5.24457 29.3278 0.558427 -0.0414866 -30.3429 23.9469 69.4218 16.3074 -39.8779 40.5538 
-316.255 50.114 -290.545 7.82893 -17.0336 143.02 -154.754 1.7828 2.45655 -3.38897 -0.20563 5.54219 -21.084 1.45508 7.12984 -135.476 85.2271 158.936 -107.126 -29.8332 -143.483 137.724 -41.322 -120.553 -42.7981 -42.3744 -4.71421 41.7408 4.0378 -12.7194 73.1918 -34.429 47.3374 59.1743 -43.8986 -40.5068 -96.902 13.343 -11.3192 18.6483 -1.34154 -24.9595 -126.504 -0.965396 -11.3034 60.2347 26.5662 8.82762 50.2226 -5.4833 -8.59115 -132.308 -1.48267 3.2112 96.4685 -16.5414 -5.65381 34.2615 1.36324 0.501335 -15.5413 17.8941 63.458 15.3345 -28.6504 37.0796 
-312.853 49.4157 -286.48 9.40655 -18.4237 143.807 -152.433 2.59086 3.79474 -6.86307 0.401824 3.67059 -19.362 1.0333 6.88621 -130.815 85.4226 155.285 -108.021 -31.0489 -143.302 132.593 -49.1114 -126.152 -47.3319 -74.9869 15.4517 50.649 -4.85461 -42.8561 72.9349 -35.094 47.8658 62.244 -38.3025 -40.6708 -101.323 18.1527 -14.1462 14.6189 -0.182046 -17.7186 -122.574 -1.79717 -11.0327 56.0979 25.8041 10.0708 51.3576 -5.71108 -8.82124 -133.53 -1.48528 2.43256 89.0634 -14.4276 -5.6625 39.4652 1.757 0.421745 -0.591385 8.17602 58.3222 14.7006 -15.8248 30.8585 
-309.393 48.4676 -282.53 9.64385 -19.4521 144.284 -152.096 3.61126 4.90806 -9.49478 1.35014 2.26745 -16.687 0.392008 6.59327 -125.237 85.8178 148.74 -108.839 -32.3846 -142.626 123.948 -50.6603 -133.985 44.2925 -75.8824 125.822 37.434 -4.33455 -62.3976 73.0344 -35.079 48.1311 60.4106 -32.6023 -41.4886 -102.949 16.7821 -15.3783 8.91484 1.14309 -12.8544 -117.801 -2.64257 -11.5769 54.2538 20.5996 10.3654 53.2851 -5.1677 -8.1604 -135.05 -0.966288 0.925442 80.6791 -12.1077 -5.41268 43.9413 1.75547 0.0283579 11.8721 -2.72306 55.0907 13.3928 -3.70405 24.27 
